<svg width="20" height="21" viewBox="0 0 20 21" fill="none" xmlns="http://www.w3.org/2000/svg">
<path fill-rule="evenodd" clip-rule="evenodd" d="M5 9.5V7.5C5 6.17392 5.52678 4.90215 6.46447 3.96447C7.40215 3.02678 8.67392 2.5 10 2.5C11.3261 2.5 12.5979 3.02678 13.5355 3.96447C14.4732 4.90215 15 6.17392 15 7.5V9.5C15.5304 9.5 16.0391 9.71071 16.4142 10.0858C16.7893 10.4609 17 10.9696 17 11.5V16.5C17 17.0304 16.7893 17.5391 16.4142 17.9142C16.0391 18.2893 15.5304 18.5 15 18.5H5C4.46957 18.5 3.96086 18.2893 3.58579 17.9142C3.21071 17.5391 3 17.0304 3 16.5V11.5C3 10.9696 3.21071 10.4609 3.58579 10.0858C3.96086 9.71071 4.46957 9.5 5 9.5ZM13 7.5V9.5H7V7.5C7 6.70435 7.31607 5.94129 7.87868 5.37868C8.44129 4.81607 9.20435 4.5 10 4.5C10.7956 4.5 11.5587 4.81607 12.1213 5.37868C12.6839 5.94129 13 6.70435 13 7.5Z" fill="#6366F1"/>
</svg>
