<svg width="193" height="48" viewBox="0 0 193 48" fill="none" xmlns="http://www.w3.org/2000/svg">
<path fill-rule="evenodd" clip-rule="evenodd" d="M8.71687 0.0010617C5.77604 0.212837 3.13256 1.76594 1.50941 4.23555C0.702149 5.46379 0.204586 6.85075 0.0294857 8.36089C0.00517604 8.57054 0 39.4503 0 39.4503L0.0491723 39.8064C0.430717 42.5699 1.88994 44.9194 4.17343 46.4468C5.42099 47.2814 6.76855 47.768 8.39447 47.9711C8.67139 48.0057 39.1787 48.0231 39.8035 47.9435C43.1068 47.5222 45.95 45.375 47.2603 42.3118C47.6684 41.3577 47.9078 40.3703 47.989 39.3065C48.0066 39.0751 47.9953 8.57329 47.9603 8.30559C47.8145 7.19018 47.5359 6.23343 47.0841 5.2961C45.9446 2.93207 43.8419 1.13399 41.3321 0.377563C40.8145 0.221552 40.2531 0.106463 39.6276 0.0281364C39.3501 -0.00661388 8.84978 -0.00851618 8.71687 0.0010617ZM20.0737 7.97559C19.7881 8.07046 19.6092 8.09545 19.2146 8.09559C18.9876 8.09567 18.7611 8.10912 18.6249 8.13065C18.5032 8.14985 18.2992 8.16531 18.1714 8.165C17.9373 8.16442 17.5192 8.21747 17.1323 8.29683C16.7923 8.36658 16.2005 8.57486 15.8936 8.73284C15.7412 8.81121 15.5569 8.90619 15.4839 8.9439C15.3663 9.00462 15.3297 9.0125 15.1631 9.01281C15.0597 9.01301 14.8088 8.99664 14.6056 8.97646C14.2765 8.94377 14.2281 8.93368 14.1632 8.88431C14.0457 8.79493 13.8685 8.71481 13.7885 8.7149C13.6433 8.71505 13.5835 8.77781 13.4365 9.08452C13.2499 9.47387 13.1472 9.5971 12.7853 9.86548C12.2037 10.2968 11.95 10.7606 11.9202 11.4466C11.9058 11.7803 11.902 11.7978 11.8283 11.8679C11.7331 11.9585 10.8226 12.6397 10.7183 12.6983C10.6621 12.7299 10.5824 12.8087 10.5192 12.8951C10.4613 12.9744 10.3218 13.1487 10.2092 13.2825C9.87913 13.675 9.81228 13.7839 9.6566 14.183C9.60579 14.3132 9.46998 14.6019 9.3548 14.8244C8.95189 15.6031 8.9443 15.6202 8.9443 15.7549C8.9443 15.8406 8.96512 15.9294 9.01349 16.0502C9.18182 16.4706 9.22365 16.8141 9.15948 17.2487C9.09279 17.7003 9.03121 17.8913 8.8034 18.3534C8.68798 18.5875 8.59361 18.7865 8.5937 18.7958C8.59379 18.805 8.62819 18.8359 8.67017 18.8645C8.83585 18.9773 8.92535 19.1514 8.92535 19.3608C8.92535 19.5247 8.97206 19.7008 9.05273 19.8411C9.08421 19.8958 9.36953 20.2047 9.68678 20.5275C10.1486 20.9974 10.2786 21.143 10.339 21.2575C10.4818 21.5286 10.6273 21.7568 10.7107 21.841C10.8243 21.9554 11.3344 22.338 11.6505 22.5459C11.9374 22.7346 12.3951 23.0016 12.692 23.1536C12.9359 23.2784 13.08 23.2878 13.3059 23.1933C13.7519 23.0069 13.8053 22.9999 14.7318 23.0066C15.6019 23.013 15.5529 23.0206 16.2465 22.7715C16.7264 22.5992 16.9774 22.5316 17.3076 22.4855C17.8823 22.4054 17.9814 22.4495 18.2482 22.9047C18.3716 23.1151 18.4399 23.1918 18.5581 23.2526C18.6385 23.2939 18.6663 23.2962 18.8788 23.279C19.0068 23.2687 19.2409 23.2598 19.3991 23.2594C19.6535 23.2587 19.6994 23.2644 19.7972 23.3095C19.931 23.3712 20.0177 23.4502 20.081 23.5683C20.1762 23.7457 20.1272 24.1734 19.9252 24.9286C19.7991 25.4001 19.8194 25.6443 20.0083 25.9296C20.0449 25.9848 20.2493 26.2177 20.4626 26.4471C20.6759 26.6765 20.8995 26.9288 20.9595 27.0079C21.181 27.2996 21.4902 28.1491 21.5873 28.7332C21.6187 28.9218 21.6443 29.0984 21.6443 29.1255C21.6443 29.1527 21.6791 29.2791 21.7217 29.4064C21.8412 29.7636 21.8206 29.9499 21.6324 30.2154C21.2168 30.8016 21.0224 31.4516 20.9874 32.3719C20.9684 32.8717 20.9957 32.9553 21.3958 33.6253C21.787 34.2802 21.975 34.6855 22.0639 35.0657C22.0873 35.1657 22.1423 35.4964 22.1861 35.8005C22.2774 36.4343 22.3916 36.9771 22.4691 37.1449C22.4984 37.2084 22.5888 37.3424 22.67 37.4425C22.896 37.7212 23.1105 38.0651 23.3016 38.4549C23.6248 39.1143 23.6972 39.3567 23.6715 39.6922C23.6366 40.146 23.81 40.4891 24.1548 40.6487C24.3638 40.7453 24.5703 40.7365 25.1401 40.6065C25.6795 40.4834 26.0254 40.4347 26.3624 40.4344C26.63 40.4341 27.0876 40.3723 27.3465 40.3014C27.6042 40.2309 27.7843 40.1267 28.0265 39.9081C28.4922 39.4878 28.9737 38.9106 29.5525 38.0789C30.0187 37.4089 30.0921 37.2272 30.1134 36.6925C30.1253 36.393 30.1333 36.3372 30.172 36.2832C30.2282 36.205 30.5975 36.0173 30.7346 35.9973C30.8878 35.975 30.9918 35.9124 31.0552 35.8042C31.1858 35.5814 31.2537 35.0642 31.2026 34.6815C31.1886 34.5769 31.1475 34.3698 31.1112 34.2211C30.9755 33.6656 31.0439 33.4703 31.4589 33.2271C31.5808 33.1557 31.6273 33.1114 31.705 32.9927C31.8488 32.7728 32.0525 32.6337 32.3915 32.5238C32.8529 32.3742 33.2332 32.0014 33.3926 31.5425C33.4489 31.3803 33.4564 31.1292 33.4237 30.5064C33.4091 30.2294 33.413 30.1157 33.445 29.887C33.4939 29.5372 33.481 29.48 33.3036 29.259C33.0714 28.9699 32.989 28.7534 32.9508 28.3322C32.9334 28.1409 32.9136 28.0583 32.8445 27.8898C32.7756 27.7219 32.7595 27.6552 32.7597 27.5388C32.76 27.3974 32.764 27.3877 32.9994 26.9637C33.3056 26.412 33.4205 26.2404 33.7108 25.9014C34.3661 25.1361 34.9343 24.5999 35.6903 24.033C36.1585 23.6819 36.4635 23.3631 36.6992 22.9785C37.417 21.8074 37.8642 20.917 37.9249 20.5378C37.9653 20.2855 37.9178 20.0066 37.8214 19.9307C37.7355 19.8632 37.6433 19.8745 37.3721 19.9856C37.1783 20.0649 37.0249 20.1061 36.6355 20.1833C35.6181 20.385 35.1316 20.4657 35.008 20.4531C34.7842 20.4303 34.6661 20.299 34.6015 20.001C34.5787 19.896 34.5446 19.7775 34.5257 19.7377C34.4836 19.6488 33.9002 19.0768 33.4195 18.6531C33.0101 18.2922 32.9103 18.1627 32.8241 17.8801C32.7106 17.5079 32.6033 17.3237 32.3491 17.065C32.1109 16.8226 32.0641 16.7158 32.0407 16.3617C32.0061 15.8381 31.8806 15.5404 31.539 15.172C31.4057 15.0282 31.3743 14.978 31.3142 14.8117C31.2757 14.7055 31.2442 14.6094 31.2442 14.5983C31.2442 14.5331 31.1593 14.3504 31.0531 14.1875C30.8665 13.9013 30.5143 13.124 30.5143 12.9985C30.5143 12.981 30.5682 12.945 30.6356 12.9177L30.7568 12.8685L30.8495 12.5889C30.9321 12.3396 30.9421 12.2865 30.9422 12.0991C30.9423 11.876 30.9383 11.8563 30.799 11.3896L30.7093 11.0893L30.3298 11.0632C30.0666 11.0451 29.8824 11.0197 29.729 10.9804C29.5617 10.9375 29.4512 10.9235 29.2756 10.9231C29.0283 10.9225 28.8946 10.9524 28.6128 11.0712C28.3803 11.1692 28.2664 11.1529 27.0773 10.8518L26.0625 10.5947L25.9231 10.4643C25.7299 10.2836 25.5911 10.2323 25.3382 10.248C25.0914 10.2634 24.7483 10.3714 24.6375 10.4687C24.5278 10.5651 24.4981 10.6492 24.4754 10.929C24.4544 11.1879 24.4018 11.3479 24.3243 11.3894C24.2996 11.4026 24.2436 11.4134 24.1999 11.4134C24.0662 11.4134 22.9567 10.979 22.828 10.8763C22.7811 10.8389 22.7412 10.7783 22.7184 10.7098C22.6421 10.48 22.4158 10.3719 21.8239 10.2826C21.3342 10.2088 20.9856 10.0904 20.6508 9.88439L20.4681 9.77194L20.5208 9.71341C20.5498 9.68122 20.6365 9.58606 20.7134 9.50194C20.9473 9.2461 20.9725 9.11224 20.8357 8.85124C20.7308 8.65093 20.7355 8.54511 20.8563 8.39007C20.9933 8.21422 20.9563 8.14531 20.7128 8.12324C20.6079 8.11372 20.577 8.10149 20.5487 8.0582C20.5002 7.98419 20.3852 7.9185 20.306 7.91956C20.2695 7.92007 20.165 7.94526 20.0737 7.97559ZM36.8959 30.2559C36.7918 30.3194 36.7038 30.4326 36.5551 30.6947C36.4794 30.8282 36.3732 30.9848 36.3193 31.0427C36.2653 31.1006 36.221 31.1646 36.2207 31.1849C36.2191 31.3071 36.0278 31.5664 35.8783 31.6491C35.8418 31.6692 35.6229 31.7655 35.3917 31.863L34.9714 32.0402L34.8677 32.2466C34.8107 32.3601 34.7485 32.5213 34.7295 32.6048C34.6848 32.8014 34.6855 33.0986 34.7311 33.3287C34.7766 33.5576 34.7567 33.6737 34.6206 33.9729C34.443 34.3635 34.3945 34.5952 34.4307 34.8812C34.4594 35.1089 34.4998 35.241 34.6468 35.589C34.7426 35.8157 34.796 35.9114 34.8719 35.9924C34.9853 36.1134 35.2085 36.254 35.2873 36.254C35.3164 36.254 35.4182 36.2197 35.5134 36.1779C35.6085 36.136 35.7491 36.0904 35.8257 36.0765C35.9942 36.046 36.0635 36.012 36.1655 35.91C36.3111 35.7645 36.399 35.532 36.5626 34.8604C36.6175 34.6354 36.7379 34.2073 36.8303 33.9093C37.0338 33.2526 37.1332 32.8717 37.1851 32.5489C37.2173 32.3485 37.2433 32.2666 37.3325 32.0844L37.4409 31.8632L37.4321 31.3544C37.4244 30.9058 37.4177 30.8283 37.3751 30.6986C37.2936 30.4505 37.107 30.215 36.992 30.2154C36.9756 30.2154 36.9324 30.2336 36.8959 30.2559Z" fill="url(#paint0_linear_3_1165)"/>
<path fill-rule="evenodd" clip-rule="evenodd" d="M72.7599 3.93163C72.1753 4.06153 71.6464 4.40639 71.2743 4.90023C71.0624 5.18152 70.9889 5.31935 70.5707 6.22148C69.9058 7.65587 59.802 29.5023 59.7243 29.948C59.58 30.7758 59.8395 31.5226 60.4899 32.1508C61.3312 32.9633 62.6091 33.1853 63.6031 32.6917C64.1746 32.4079 64.593 31.9427 64.9081 31.2409C65.3508 30.2547 73.3262 12.9661 73.3262 12.9661L73.3825 13.0774C73.4752 13.2604 86.0155 40.3434 86.1053 40.5283C86.6662 41.6839 87.5614 42.3001 88.6795 42.3001C89.8893 42.3001 90.932 41.5104 91.2315 40.3673C91.3568 39.8889 91.3439 39.2638 91.1983 38.7612C91.121 38.4946 75.9181 5.72658 75.8499 5.58432C75.4384 4.72595 74.8199 4.18596 73.9926 3.96282C73.7231 3.89012 73.026 3.87248 72.7599 3.93163ZM109.186 3.91567C108.158 3.9742 107.139 4.13524 106.074 4.40729C103.074 5.1735 100.7 6.69603 98.9753 8.95974C97.8256 10.4685 97.1418 12.047 96.8296 13.9129C96.6428 15.0296 96.5895 16.6308 96.7217 17.1563C96.9366 18.0102 97.6283 18.7294 98.4989 19.004C99.5585 19.3382 100.813 18.9287 101.472 18.0331C101.857 17.5099 101.958 17.1312 102 16.0598C102.027 15.3576 102.077 14.9596 102.211 14.4044C102.48 13.2868 102.95 12.3989 103.667 11.6558C104.03 11.2793 104.25 11.0967 104.69 10.8076C105.498 10.2768 106.181 9.94264 107.044 9.65745C108.026 9.33277 108.949 9.19547 109.941 9.22651C111.194 9.2657 112.418 9.56291 113.708 10.1414C115.418 10.9082 116.583 12.1215 117.131 13.706C117.641 15.1818 117.731 16.8453 117.387 18.434C117.144 19.5529 116.828 20.2403 116.249 20.9054C115.818 21.401 115.074 21.9188 114.053 22.4339C112.881 23.0253 112.083 23.3208 110.005 23.9324C106.235 25.0425 104.219 25.8837 102.427 27.0943C101.64 27.6264 101.065 28.1067 100.381 28.8048C99.0504 30.1616 97.459 33.6223 97.459 33.6223C97.0474 34.8448 96.8038 36.1757 96.6994 37.7737C96.5842 39.5362 96.6022 40.0259 96.8023 40.5743C97.1182 41.4399 97.8221 42.041 98.767 42.2523L99.0386 42.313H110.445L110.655 42.2568C111.175 42.118 111.579 41.8789 111.948 41.4911C112.607 40.7985 112.834 39.8532 112.566 38.9259C112.307 38.0331 111.593 37.3442 110.67 37.0965C110.371 37.0165 102.152 36.9977 102.152 36.9977L102.169 36.8748C102.38 35.3745 102.953 34.02 103.83 32.9487C104.568 32.0473 105.577 31.3005 106.839 30.7225C108.074 30.1564 109.436 29.673 111.713 28.9924C113.921 28.3323 115.189 27.8611 116.482 27.2203C117.185 26.872 117.621 26.6228 118.179 26.2507C120.581 24.6483 122.054 22.425 122.638 19.5198C123.077 17.3399 122.997 14.6276 122.436 12.6441C121.587 9.6417 119.699 7.35503 116.681 5.67487C114.924 4.69644 112.998 4.10159 111.074 3.94353C110.604 3.90483 109.629 3.89045 109.186 3.91567ZM141.639 3.90553C138.328 4.07151 135.533 4.97154 133.426 6.55062C132.545 7.21122 131.728 8.03958 131.121 8.88708C130.166 10.2222 129.606 11.7038 129.404 13.4344C129.346 13.9295 129.326 14.9787 129.364 15.5431C129.443 16.7254 129.618 17.6202 129.937 18.4722C130.861 20.9392 132.904 22.8597 136.009 24.1786C137.394 24.7669 138.627 25.1555 141.639 25.9532C145.282 26.9183 146.841 27.4507 148.092 28.1569C148.563 28.4226 148.854 28.633 149.167 28.9338C149.673 29.4193 149.982 29.9602 150.139 30.6348C150.205 30.9167 150.232 31.6484 150.19 32.0291C150.025 33.5431 149.324 34.6731 148.015 35.5359C147.004 36.2023 145.558 36.6659 143.848 36.8717C143.448 36.9199 143.231 36.9294 142.492 36.931C141.934 36.9323 141.49 36.9205 141.277 36.8988C138.922 36.6588 136.98 36.0101 135.471 34.9595C135.058 34.6721 134.726 34.3914 134.267 33.9425C133.782 33.4678 133.616 33.3396 133.34 33.2251C132.599 32.9175 131.491 33.0627 130.694 33.572C130.51 33.6897 130.21 33.9777 130.075 34.1666C129.576 34.8656 129.462 35.9021 129.794 36.7132C129.959 37.1158 130.199 37.4401 130.676 37.9036C132.131 39.3187 133.691 40.307 135.665 41.0654C137.962 41.9477 140.237 42.3373 142.828 42.292C145.415 42.2468 147.479 41.7754 149.579 40.7499C151.328 39.8959 152.563 38.9166 153.56 37.5926C154.617 36.1884 155.243 34.6317 155.495 32.7817C155.573 32.2047 155.58 30.882 155.507 30.2986C155.363 29.1377 155.126 28.303 154.689 27.4146C154.034 26.0845 153.021 24.9747 151.57 23.9962C150.409 23.214 149.189 22.6539 147.201 21.9913C146.193 21.6554 145.383 21.4238 143.82 21.0247C142.18 20.606 141.569 20.4384 140.7 20.1697C137.99 19.3313 136.436 18.5457 135.605 17.5927C134.819 16.6909 134.544 15.5838 134.735 14.0811C134.836 13.2858 135.082 12.6074 135.501 11.9685C135.765 11.5664 136.298 11.0386 136.734 10.7479C137.834 10.0147 139.543 9.46341 141.277 9.28254C141.49 9.26026 142.008 9.2321 142.428 9.21994C143.116 9.2 143.215 9.19149 143.436 9.13337C143.737 9.05453 143.92 8.97476 144.166 8.81574C144.666 8.49251 145.12 7.84743 145.284 7.22676C145.344 6.99897 145.366 6.47719 145.325 6.2258C145.208 5.49788 144.743 4.75115 144.163 4.3575C143.872 4.15994 143.555 4.03033 143.177 3.95431C142.986 3.91583 142.035 3.88567 141.639 3.90553ZM189.205 3.90758C188.598 3.98331 188.082 4.24613 187.651 4.69895C187.335 5.03036 187.201 5.26959 186.9 6.03344C186.191 7.83801 176.142 32.4925 176.142 32.4925C176.142 32.4925 169.218 15.4118 169.154 15.2838C168.711 14.395 167.974 13.8818 167.038 13.8092C166.187 13.7433 165.216 14.1519 164.701 14.7926C164.288 15.3061 164.108 15.8674 164.137 16.5512C164.163 17.1548 173.656 40.5585 173.757 40.7611C173.913 41.0737 174.078 41.3062 174.307 41.5378C175.357 42.6006 177.02 42.5763 178.069 41.483C178.295 41.2481 178.521 40.9222 178.638 40.6641C178.725 40.4712 192.127 7.33617 192.198 7.07783C192.245 6.91079 192.292 6.81701 192.293 6.45021C192.326 6.45021 192.258 5.99816 192.257 5.99816L192.163 5.73273C192.041 5.38482 191.865 5.09686 191.61 4.82572C191.137 4.3215 190.543 4.01024 189.879 3.91787C189.689 3.89149 189.373 3.88665 189.205 3.90758Z" fill="url(#paint1_linear_3_1165)"/>
<path d="M152.579 13.0826C154.068 13.0826 155.275 11.8757 155.275 10.387C155.275 8.89826 154.068 7.69141 152.579 7.69141C151.091 7.69141 149.884 8.89826 149.884 10.387C149.884 11.8757 151.091 13.0826 152.579 13.0826Z" fill="url(#paint2_linear_3_1165)"/>
<path d="M120.319 42.3355C121.807 42.3355 123.014 41.1286 123.014 39.6399C123.014 38.1512 121.807 36.9443 120.319 36.9443C118.83 36.9443 117.623 38.1512 117.623 39.6399C117.623 41.1286 118.83 42.3355 120.319 42.3355Z" fill="url(#paint3_linear_3_1165)"/>
<path d="M162.815 9.26615C164.303 9.26615 165.51 8.0593 165.51 6.57058C165.51 5.08185 164.303 3.875 162.815 3.875C161.326 3.875 160.119 5.08185 160.119 6.57058C160.119 8.0593 161.326 9.26615 162.815 9.26615Z" fill="url(#paint4_linear_3_1165)"/>
<path d="M58.096 42.2564C59.5847 42.2564 60.7915 41.0495 60.7915 39.5608C60.7915 38.0721 59.5847 36.8652 58.096 36.8652C56.6072 36.8652 55.4004 38.0721 55.4004 39.5608C55.4004 41.0495 56.6072 42.2564 58.096 42.2564Z" fill="url(#paint5_linear_3_1165)"/>
<defs>
<linearGradient id="paint0_linear_3_1165" x1="0.165456" y1="136.336" x2="168.165" y2="136.336" gradientUnits="userSpaceOnUse">
<stop stop-color="#2D388A"/>
<stop offset="1" stop-color="#00AEEF"/>
</linearGradient>
<linearGradient id="paint1_linear_3_1165" x1="-9.22861" y1="163.32" x2="187.218" y2="163.32" gradientUnits="userSpaceOnUse">
<stop stop-color="#2D388A"/>
<stop offset="1" stop-color="#00AEEF"/>
</linearGradient>
<linearGradient id="paint2_linear_3_1165" x1="-9.22755" y1="163.32" x2="187.219" y2="163.32" gradientUnits="userSpaceOnUse">
<stop stop-color="#2D388A"/>
<stop offset="1" stop-color="#00AEEF"/>
</linearGradient>
<linearGradient id="paint3_linear_3_1165" x1="-9.22855" y1="163.32" x2="187.218" y2="163.32" gradientUnits="userSpaceOnUse">
<stop stop-color="#2D388A"/>
<stop offset="1" stop-color="#00AEEF"/>
</linearGradient>
<linearGradient id="paint4_linear_3_1165" x1="-9.22792" y1="163.321" x2="187.219" y2="163.321" gradientUnits="userSpaceOnUse">
<stop stop-color="#2D388A"/>
<stop offset="1" stop-color="#00AEEF"/>
</linearGradient>
<linearGradient id="paint5_linear_3_1165" x1="-9.22818" y1="163.321" x2="187.218" y2="163.321" gradientUnits="userSpaceOnUse">
<stop stop-color="#2D388A"/>
<stop offset="1" stop-color="#00AEEF"/>
</linearGradient>
</defs>
</svg>
