<svg xmlns="http://www.w3.org/2000/svg" width="129" height="64" viewBox="0 0 129 64" fill="none">
<g clip-path="url(#clip0_2_391)">
<g clip-path="url(#clip1_2_391)">
<g clip-path="url(#clip2_2_391)">
<path fill-rule="evenodd" clip-rule="evenodd" d="M5.80441 16.0004C3.84386 16.1416 2.08154 17.177 0.999439 18.8234C0.461264 19.6423 0.129555 20.5669 0.0128212 21.5737C-0.00338524 21.7134 -0.00683594 42.2999 -0.00683594 42.2999L0.0259456 42.5374C0.280309 44.3797 1.25312 45.946 2.77545 46.9643C3.60716 47.5206 4.50553 47.8451 5.58948 47.9805C5.77409 48.0036 26.1123 48.0151 26.5288 47.962C28.7311 47.6812 30.6265 46.2497 31.5 44.2076C31.7721 43.5716 31.9317 42.9132 31.9858 42.2041C31.9976 42.0498 31.99 21.7153 31.9667 21.5368C31.8695 20.7932 31.6838 20.1554 31.3826 19.5305C30.6229 17.9544 29.2211 16.7557 27.5479 16.2514C27.2029 16.1474 26.8286 16.0707 26.4116 16.0185C26.2266 15.9953 5.89302 15.9941 5.80441 16.0004ZM13.3757 21.3168C13.1852 21.38 13.0659 21.3967 12.8029 21.3968C12.6516 21.3969 12.5006 21.4058 12.4098 21.4202C12.3286 21.433 12.1926 21.4433 12.1074 21.4431C11.9514 21.4427 11.6726 21.478 11.4147 21.531C11.188 21.5775 10.7935 21.7163 10.5889 21.8216C10.4873 21.8739 10.3644 21.9372 10.3157 21.9623C10.2374 22.0028 10.213 22.0081 10.1019 22.0083C10.033 22.0084 9.86571 21.9975 9.73022 21.984C9.51081 21.9622 9.47855 21.9555 9.43529 21.9226C9.35694 21.863 9.2388 21.8096 9.1855 21.8097C9.08867 21.8098 9.04882 21.8516 8.95083 22.0561C8.82645 22.3157 8.75793 22.3978 8.51667 22.5767C8.12898 22.8643 7.95981 23.1735 7.93999 23.6308C7.93036 23.8533 7.92781 23.865 7.8787 23.9117C7.81526 23.9721 7.20822 24.4262 7.13869 24.4653C7.1012 24.4864 7.0481 24.5389 7.00597 24.5965C6.96735 24.6493 6.87434 24.7656 6.7993 24.8548C6.57925 25.1164 6.53469 25.189 6.4309 25.455C6.39703 25.5419 6.30648 25.7343 6.2297 25.8827C5.96109 26.4018 5.95603 26.4132 5.95603 26.503C5.95603 26.5601 5.96991 26.6193 6.00216 26.6999C6.11438 26.9801 6.14227 27.2091 6.09949 27.4989C6.05503 27.7999 6.01397 27.9273 5.8621 28.2353C5.78515 28.3914 5.72224 28.5241 5.7223 28.5302C5.72236 28.5364 5.74529 28.557 5.77328 28.5761C5.88373 28.6513 5.94339 28.7673 5.94339 28.9069C5.94339 29.0162 5.97454 29.1336 6.02832 29.2271C6.0493 29.2636 6.23952 29.4696 6.45101 29.6848C6.75889 29.998 6.84557 30.0951 6.88582 30.1714C6.98105 30.3521 7.07801 30.5043 7.13366 30.5604C7.20936 30.6367 7.54941 30.8918 7.76015 31.0303C7.95143 31.1561 8.25658 31.3341 8.4545 31.4355C8.61711 31.5187 8.71315 31.5249 8.86379 31.4619C9.16112 31.3377 9.19669 31.333 9.81436 31.3375C10.3944 31.3417 10.3618 31.3468 10.8242 31.1808C11.1441 31.0659 11.3114 31.0208 11.5315 30.9901C11.9147 30.9367 11.9807 30.9661 12.1586 31.2695C12.2409 31.4098 12.2864 31.461 12.3652 31.5015C12.4188 31.529 12.4373 31.5306 12.579 31.5191C12.6644 31.5122 12.8204 31.5063 12.9259 31.506C13.0955 31.5055 13.1261 31.5094 13.1913 31.5394C13.2805 31.5805 13.3383 31.6332 13.3805 31.7119C13.444 31.8302 13.4113 32.1153 13.2766 32.6188C13.1925 32.9331 13.2061 33.0959 13.332 33.2861C13.3564 33.3229 13.4927 33.4782 13.6349 33.6311C13.7771 33.784 13.9261 33.9523 13.9662 34.005C14.1139 34.1995 14.3199 34.7658 14.3847 35.1552C14.4056 35.2809 14.4227 35.3986 14.4227 35.4168C14.4227 35.4349 14.4459 35.5191 14.4743 35.604C14.5539 35.8421 14.5402 35.9664 14.4147 36.1434C14.1377 36.5341 14.0081 36.9675 13.9848 37.581C13.9721 37.9142 13.9903 37.9699 14.2571 38.4166C14.5179 38.8532 14.6432 39.1234 14.7024 39.3768C14.718 39.4435 14.7547 39.664 14.7839 39.8668C14.8447 40.2893 14.9209 40.6511 14.9725 40.763C14.9921 40.8054 15.0524 40.8946 15.1065 40.9614C15.2572 41.1472 15.4002 41.3764 15.5276 41.6363C15.743 42.0759 15.7913 42.2375 15.7741 42.4612C15.7509 42.7637 15.8665 42.9925 16.0964 43.0989C16.2357 43.1633 16.3734 43.1574 16.7532 43.0707C17.1128 42.9887 17.3434 42.9562 17.5681 42.956C17.7465 42.9558 18.0516 42.9146 18.2242 42.8674C18.396 42.8204 18.516 42.7509 18.6775 42.6052C18.988 42.3249 19.309 41.9402 19.6948 41.3856C20.0056 40.939 20.0546 40.8179 20.0688 40.4614C20.0767 40.2617 20.082 40.2245 20.1078 40.1886C20.1453 40.1364 20.3915 40.0113 20.4829 39.998C20.585 39.9831 20.6544 39.9413 20.6967 39.8692C20.7837 39.7206 20.829 39.3759 20.7949 39.1207C20.7856 39.051 20.7581 38.9129 20.7339 38.8138C20.6435 38.4435 20.6891 38.3132 20.9658 38.1511C21.047 38.1035 21.078 38.074 21.1298 37.9948C21.2257 37.8483 21.3615 37.7556 21.5875 37.6823C21.8951 37.5825 22.1486 37.334 22.2549 37.028C22.2924 36.9199 22.2975 36.7526 22.2756 36.3373C22.2659 36.1527 22.2685 36.0768 22.2898 35.9244C22.3224 35.6912 22.3138 35.6531 22.1955 35.5057C22.0408 35.313 21.9859 35.1687 21.9604 34.8878C21.9488 34.7603 21.9356 34.7053 21.8895 34.5929C21.8436 34.481 21.8328 34.4365 21.833 34.3589C21.8331 34.2647 21.8358 34.2582 21.9928 33.9755C22.1969 33.6077 22.2735 33.4934 22.467 33.2673C22.9039 32.7572 23.2827 32.3996 23.7867 32.0217C24.0989 31.7876 24.3022 31.5751 24.4593 31.3188C24.9379 30.538 25.2359 29.9444 25.2764 29.6916C25.3034 29.5234 25.2717 29.3374 25.2074 29.2869C25.1502 29.2419 25.0887 29.2494 24.9079 29.3234C24.7787 29.3764 24.6764 29.4038 24.4169 29.4553C23.7386 29.5897 23.4142 29.6435 23.3318 29.6351C23.1826 29.62 23.1039 29.5324 23.0608 29.3338C23.0456 29.2638 23.0229 29.1848 23.0103 29.1582C22.9822 29.099 22.5933 28.7176 22.2728 28.4351C21.9999 28.1946 21.9334 28.1082 21.8759 27.9198C21.8002 27.6717 21.7287 27.5489 21.5592 27.3764C21.4004 27.2148 21.3692 27.1436 21.3536 26.9076C21.3306 26.5585 21.2469 26.36 21.0191 26.1144C20.9303 26.0186 20.9094 25.9851 20.8693 25.8742C20.8436 25.8034 20.8227 25.7393 20.8227 25.7319C20.8227 25.6884 20.766 25.5667 20.6952 25.4581C20.5708 25.2673 20.336 24.7491 20.336 24.6654C20.336 24.6537 20.372 24.6298 20.4169 24.6116L20.4977 24.5787L20.5595 24.3923C20.6145 24.2261 20.6212 24.1907 20.6213 24.0658C20.6214 23.917 20.6187 23.9039 20.5258 23.5928L20.4661 23.3926L20.213 23.3752C20.0375 23.3631 19.9148 23.3462 19.8125 23.32C19.701 23.2914 19.6273 23.2821 19.5102 23.2818C19.3453 23.2814 19.2562 23.3013 19.0683 23.3805C18.9134 23.4459 18.8375 23.435 18.0447 23.2342L17.3682 23.0629L17.2752 22.9759C17.1464 22.8555 17.0539 22.8213 16.8853 22.8318C16.7208 22.842 16.4921 22.914 16.4182 22.9789C16.345 23.0431 16.3253 23.0992 16.3101 23.2857C16.2961 23.4583 16.2611 23.565 16.2093 23.5927C16.1929 23.6015 16.1556 23.6087 16.1264 23.6087C16.0373 23.6087 15.2976 23.3191 15.2118 23.2506C15.1805 23.2257 15.154 23.1853 15.1388 23.1396C15.0879 22.9864 14.937 22.9143 14.5424 22.8548C14.216 22.8056 13.9835 22.7267 13.7604 22.5893L13.6385 22.5144L13.6737 22.4753C13.693 22.4539 13.7508 22.3904 13.8021 22.3344C13.958 22.1638 13.9748 22.0746 13.8837 21.9006C13.8137 21.767 13.8169 21.6965 13.8974 21.5931C13.9887 21.4759 13.964 21.4299 13.8017 21.4152C13.7318 21.4089 13.7112 21.4007 13.6923 21.3719C13.66 21.3225 13.5833 21.2787 13.5305 21.2794C13.5062 21.2798 13.4365 21.2966 13.3757 21.3168ZM24.5904 36.1703C24.521 36.2126 24.4624 36.2881 24.3632 36.4629C24.3127 36.5518 24.242 36.6563 24.206 36.6949C24.1701 36.7335 24.1405 36.7761 24.1403 36.7896C24.1392 36.8711 24.0117 37.044 23.9121 37.0991C23.8877 37.1126 23.7417 37.1767 23.5876 37.2417L23.3074 37.3598L23.2383 37.4975C23.2003 37.5731 23.1588 37.6806 23.1462 37.7363C23.1164 37.8673 23.1168 38.0655 23.1473 38.2189C23.1775 38.3715 23.1643 38.4489 23.0736 38.6483C22.9551 38.9088 22.9228 39.0632 22.9469 39.2539C22.9661 39.4057 22.993 39.4937 23.091 39.7257C23.1549 39.8769 23.1905 39.9407 23.2411 39.9947C23.3167 40.0754 23.4655 40.1691 23.518 40.1691C23.5375 40.1691 23.6053 40.1462 23.6687 40.1183C23.7322 40.0904 23.8259 40.06 23.877 40.0508C23.9893 40.0304 24.0355 40.0077 24.1035 39.9397C24.2005 39.8427 24.2592 39.6877 24.3683 39.24C24.4048 39.09 24.4851 38.8046 24.5467 38.6059C24.6824 38.1681 24.7486 37.9142 24.7832 37.699C24.8047 37.5654 24.822 37.5108 24.8815 37.3893L24.9537 37.2419L24.9479 36.9027C24.9428 36.6036 24.9383 36.5519 24.9099 36.4655C24.8556 36.3001 24.7311 36.1431 24.6545 36.1433C24.6436 36.1433 24.6147 36.1555 24.5904 36.1703Z" fill="url(#paint0_linear_2_391)"/>
<path fill-rule="evenodd" clip-rule="evenodd" d="M48.4999 18.6212C48.1102 18.7078 47.7576 18.9377 47.5095 19.2669C47.3682 19.4544 47.3193 19.5463 47.0405 20.1477C46.5972 21.104 39.8614 35.6683 39.8095 35.9654C39.7133 36.5173 39.8864 37.0152 40.32 37.434C40.8808 37.9756 41.7327 38.1236 42.3954 37.7945C42.7764 37.6053 43.0553 37.2952 43.2654 36.8274C43.5605 36.1699 48.8774 24.6442 48.8774 24.6442L48.915 24.7184C48.9768 24.8403 57.337 42.8957 57.3969 43.019C57.7708 43.7893 58.3676 44.2001 59.113 44.2001C59.9195 44.2001 60.6146 43.6737 60.8143 42.9116C60.8979 42.5927 60.8893 42.1759 60.7922 41.8409C60.7407 41.6631 50.6054 19.8178 50.5599 19.723C50.2856 19.1507 49.8732 18.7907 49.3217 18.642C49.142 18.5935 48.6773 18.5817 48.4999 18.6212ZM72.784 18.6105C72.0989 18.6496 71.4193 18.7569 70.7093 18.9383C68.7096 19.4491 67.1269 20.4641 65.9769 21.9732C65.2104 22.9791 64.7546 24.0314 64.5464 25.2754C64.4218 26.0198 64.3863 27.0873 64.4745 27.4376C64.6177 28.0068 65.0789 28.4863 65.6593 28.6694C66.3656 28.8922 67.2017 28.6192 67.6412 28.0221C67.898 27.6734 67.9655 27.4209 67.993 26.7066C68.0111 26.2385 68.045 25.9731 68.134 25.603C68.3131 24.8579 68.6266 24.266 69.1045 23.7706C69.3467 23.5196 69.4935 23.3979 69.7867 23.2052C70.3251 22.8513 70.781 22.6285 71.3559 22.4384C72.0104 22.2219 72.6257 22.1304 73.2872 22.1511C74.1226 22.1772 74.9384 22.3754 75.7985 22.761C76.9385 23.2722 77.7153 24.0811 78.0804 25.1374C78.4206 26.1213 78.4806 27.2303 78.2511 28.2894C78.0894 29.0354 77.8785 29.4936 77.4928 29.937C77.2054 30.2674 76.7095 30.6126 76.0289 30.956C75.2474 31.3503 74.7152 31.5473 73.3303 31.955C70.8164 32.6951 69.4724 33.2559 68.2779 34.063C67.753 34.4177 67.3699 34.7379 66.9137 35.2033C66.0269 36.1078 64.966 38.4149 64.966 38.4149C64.6916 39.23 64.5292 40.1172 64.4596 41.1825C64.3828 42.3576 64.3948 42.684 64.5282 43.0496C64.7388 43.6267 65.208 44.0274 65.838 44.1683L66.019 44.2088H73.6234L73.7637 44.1713C74.1101 44.0788 74.3791 43.9194 74.6251 43.6608C75.0645 43.1991 75.2163 42.5689 75.0372 41.9507C74.8647 41.3555 74.3886 40.8962 73.773 40.7311C73.5741 40.6777 68.0948 40.6652 68.0948 40.6652L68.1063 40.5833C68.2465 39.5831 68.6284 38.6801 69.2132 37.9659C69.7052 37.365 70.3782 36.8671 71.219 36.4817C72.0426 36.1043 72.9506 35.7821 74.4684 35.3284C75.9406 34.8883 76.786 34.5742 77.6481 34.147C78.1168 33.9147 78.4074 33.7486 78.7792 33.5006C80.3804 32.4323 81.3624 30.9501 81.7521 29.0133C82.0445 27.56 81.9913 25.7518 81.6173 24.4295C81.0512 22.4279 79.7924 20.9034 77.7807 19.7833C76.6092 19.131 75.325 18.7345 74.0429 18.6291C73.7291 18.6033 73.0791 18.5937 72.784 18.6105ZM94.4191 18.6038C92.2118 18.7144 90.3489 19.3144 88.9443 20.3672C88.3567 20.8076 87.8119 21.3598 87.4076 21.9248C86.7706 22.8149 86.3975 23.8026 86.2623 24.9564C86.2237 25.2864 86.2104 25.9859 86.2357 26.3622C86.2886 27.1503 86.4054 27.7469 86.6181 28.3149C87.2338 29.9595 88.5961 31.2399 90.6661 32.1192C91.5893 32.5113 92.4112 32.7704 94.4191 33.3022C96.8481 33.9456 97.8876 34.3005 98.7214 34.7714C99.035 34.9485 99.2291 35.0887 99.438 35.2893C99.7753 35.6129 99.9813 35.9735 100.086 36.4233C100.13 36.6112 100.148 37.099 100.12 37.3528C100.01 38.3621 99.5425 39.1155 98.67 39.6907C97.9961 40.1349 97.032 40.444 95.8921 40.5812C95.6252 40.6133 95.4808 40.6197 94.9881 40.6208C94.616 40.6216 94.32 40.6138 94.1777 40.5993C92.6078 40.4393 91.3133 40.0068 90.3073 39.3064C90.0321 39.1148 89.8106 38.9277 89.5047 38.6284C89.1813 38.312 89.0709 38.2265 88.8869 38.1501C88.3927 37.9451 87.6541 38.0419 87.1225 38.3814C86.9997 38.4599 86.7999 38.6519 86.7101 38.7778C86.3775 39.2438 86.3012 39.9348 86.5225 40.4755C86.6323 40.744 86.7925 40.9602 87.1104 41.2691C88.081 42.2126 89.1207 42.8714 90.4367 43.377C91.9678 43.9652 93.4844 44.2249 95.2118 44.1948C96.9369 44.1646 98.3129 43.8503 99.7129 43.1667C100.879 42.5973 101.702 41.9445 102.367 41.0618C103.072 40.1257 103.489 39.0879 103.656 37.8545C103.709 37.4699 103.713 36.5881 103.665 36.1991C103.569 35.4252 103.411 34.8688 103.119 34.2765C102.683 33.3897 102.007 32.6499 101.04 31.9976C100.266 31.4761 99.4526 31.1027 98.1273 30.661C97.4553 30.437 96.9154 30.2826 95.8732 30.0165C94.7801 29.7374 94.3724 29.6257 93.7932 29.4465C91.9864 28.8876 90.951 28.3639 90.3968 27.7285C89.8724 27.1273 89.6895 26.3893 89.8166 25.3875C89.8839 24.8573 90.0479 24.405 90.3273 23.9791C90.5032 23.711 90.8587 23.3591 91.1495 23.1653C91.8829 22.6766 93.0222 22.309 94.1777 22.1884C94.32 22.1736 94.6653 22.1548 94.945 22.1467C95.4037 22.1334 95.4698 22.1277 95.6175 22.089C95.8179 22.0364 95.94 21.9833 96.1041 21.8772C96.4376 21.6618 96.7402 21.2317 96.8495 20.8179C96.8897 20.6661 96.9039 20.3182 96.8769 20.1506C96.7986 19.6653 96.4889 19.1675 96.102 18.9051C95.9078 18.7734 95.6965 18.687 95.4446 18.6363C95.317 18.6106 94.6833 18.5905 94.4191 18.6038ZM126.13 18.6051C125.725 18.6556 125.381 18.8308 125.094 19.1327C124.883 19.3537 124.794 19.5131 124.594 20.0224C124.121 21.2254 117.421 37.6618 117.421 37.6618C117.421 37.6618 112.805 26.2746 112.763 26.1893C112.467 25.5968 111.976 25.2546 111.352 25.2062C110.785 25.1623 110.137 25.4347 109.794 25.8618C109.518 26.2042 109.398 26.5784 109.418 27.0342C109.435 27.4366 115.764 43.0391 115.831 43.1741C115.935 43.3825 116.045 43.5376 116.198 43.692C116.898 44.4005 118.006 44.3843 118.706 43.6554C118.856 43.4988 119.007 43.2816 119.085 43.1095C119.143 42.9809 128.078 20.8909 128.126 20.7186C128.156 20.6073 128.188 20.5448 128.189 20.3002C128.211 20.3002 128.165 19.9989 128.165 19.9989L128.102 19.8219C128.02 19.59 127.903 19.398 127.734 19.2172C127.418 18.8811 127.022 18.6736 126.579 18.612C126.453 18.5944 126.242 18.5912 126.13 18.6051Z" fill="url(#paint1_linear_2_391)"/>
<path d="M101.713 24.7218C102.705 24.7218 103.51 23.9173 103.51 22.9248C103.51 21.9323 102.705 21.1277 101.713 21.1277C100.72 21.1277 99.9155 21.9323 99.9155 22.9248C99.9155 23.9173 100.72 24.7218 101.713 24.7218Z" fill="url(#paint2_linear_2_391)"/>
<path d="M80.2057 44.2237C81.1982 44.2237 82.0028 43.4192 82.0028 42.4267C82.0028 41.4342 81.1982 40.6296 80.2057 40.6296C79.2133 40.6296 78.4087 41.4342 78.4087 42.4267C78.4087 43.4192 79.2133 44.2237 80.2057 44.2237Z" fill="url(#paint3_linear_2_391)"/>
<path d="M108.536 22.1773C109.528 22.1773 110.333 21.3727 110.333 20.3802C110.333 19.3878 109.528 18.5832 108.536 18.5832C107.543 18.5832 106.739 19.3878 106.739 20.3802C106.739 21.3727 107.543 22.1773 108.536 22.1773Z" fill="url(#paint4_linear_2_391)"/>
<path d="M38.7238 44.1708C39.7163 44.1708 40.5209 43.3662 40.5209 42.3737C40.5209 41.3812 39.7163 40.5767 38.7238 40.5767C37.7313 40.5767 36.9268 41.3812 36.9268 42.3737C36.9268 43.3662 37.7313 44.1708 38.7238 44.1708Z" fill="url(#paint5_linear_2_391)"/>
</g>
</g>
</g>
<defs>
<linearGradient id="paint0_linear_2_391" x1="0.103468" y1="106.89" x2="112.103" y2="106.89" gradientUnits="userSpaceOnUse">
<stop stop-color="#2D388A"/>
<stop offset="1" stop-color="#00AEEF"/>
</linearGradient>
<linearGradient id="paint1_linear_2_391" x1="-6.15908" y1="124.88" x2="124.805" y2="124.88" gradientUnits="userSpaceOnUse">
<stop stop-color="#2D388A"/>
<stop offset="1" stop-color="#00AEEF"/>
</linearGradient>
<linearGradient id="paint2_linear_2_391" x1="-6.1587" y1="124.88" x2="124.806" y2="124.88" gradientUnits="userSpaceOnUse">
<stop stop-color="#2D388A"/>
<stop offset="1" stop-color="#00AEEF"/>
</linearGradient>
<linearGradient id="paint3_linear_2_391" x1="-6.15903" y1="124.88" x2="124.806" y2="124.88" gradientUnits="userSpaceOnUse">
<stop stop-color="#2D388A"/>
<stop offset="1" stop-color="#00AEEF"/>
</linearGradient>
<linearGradient id="paint4_linear_2_391" x1="-6.15927" y1="124.88" x2="124.805" y2="124.88" gradientUnits="userSpaceOnUse">
<stop stop-color="#2D388A"/>
<stop offset="1" stop-color="#00AEEF"/>
</linearGradient>
<linearGradient id="paint5_linear_2_391" x1="-6.15896" y1="124.88" x2="124.805" y2="124.88" gradientUnits="userSpaceOnUse">
<stop stop-color="#2D388A"/>
<stop offset="1" stop-color="#00AEEF"/>
</linearGradient>
<clipPath id="clip0_2_391">
<rect width="128.28" height="32" fill="white" transform="translate(0 16)"/>
</clipPath>
<clipPath id="clip1_2_391">
<rect width="128.28" height="32" fill="white" transform="translate(0 16)"/>
</clipPath>
<clipPath id="clip2_2_391">
<rect width="128.295" height="32" fill="white" transform="translate(-0.00732422 16)"/>
</clipPath>
</defs>
</svg>