<svg width="134" height="40" viewBox="0 0 134 40" fill="none" xmlns="http://www.w3.org/2000/svg">
<g clip-path="url(#clip0_3_972)">
<g clip-path="url(#clip1_3_972)">
<path d="M82.9354 31.2493C75.2432 36.9191 64.0939 39.9441 54.4945 39.9441C41.0346 39.9441 28.9172 34.9658 19.7499 26.6859C19.0297 26.0348 19.675 25.1474 20.5393 25.6545C30.4326 31.4107 42.6652 34.8736 55.3011 34.8736C63.823 34.8736 73.1977 33.1104 81.8176 29.4516C83.1198 28.8985 84.2088 30.3044 82.9354 31.2493Z" fill="#FF9900"/>
<path d="M86.1339 27.5903C85.1543 26.3342 79.6344 26.9968 77.1567 27.2906C76.4019 27.3828 76.2867 26.726 76.9666 26.2535C81.363 23.1593 88.5769 24.0524 89.4182 25.0896C90.2594 26.1325 89.1992 33.3637 85.0679 36.8151C84.4341 37.3452 83.8291 37.0629 84.1114 36.3599C85.0391 34.0436 87.1191 28.8521 86.1339 27.5903Z" fill="#FF9900"/>
<path d="M77.3288 4.40991V1.40218C77.3288 0.946984 77.6746 0.641602 78.0894 0.641602H91.5551C91.9872 0.641602 92.3329 0.952747 92.3329 1.40218V3.97777C92.3272 4.40991 91.9642 4.97458 91.3188 5.86768L84.3411 15.8301C86.934 15.7667 89.6709 16.1528 92.0218 17.478C92.5519 17.7776 92.6959 18.2155 92.7363 18.6477V21.8571C92.7363 22.295 92.2523 22.8078 91.7452 22.5427C87.6024 20.3705 82.0997 20.1343 77.519 22.5658C77.0523 22.8193 76.5625 22.3123 76.5625 21.8744V18.8263C76.5625 18.3365 76.5683 17.501 77.058 16.7578L85.142 5.16473H78.1067C77.6746 5.16473 77.3288 4.85935 77.3288 4.40991Z" fill="#221F1F"/>
<path d="M28.2084 23.1769H24.1116C23.7198 23.1481 23.4087 22.8542 23.3799 22.4797V1.45435C23.3799 1.03373 23.7314 0.69953 24.1693 0.69953H27.9894C28.387 0.716804 28.7039 1.0222 28.7327 1.40249V4.15094H28.8076C29.8045 1.49468 31.6771 0.255859 34.2008 0.255859C36.7649 0.255859 38.3667 1.49468 39.5191 4.15094C40.5101 1.49468 42.7631 0.255859 45.1773 0.255859C46.8944 0.255859 48.7728 0.964578 49.9194 2.55487C51.2158 4.32379 50.9508 6.89362 50.9508 9.14654L50.945 22.4163C50.945 22.8369 50.5935 23.1769 50.1556 23.1769H46.0647C45.6556 23.1481 45.3271 22.8196 45.3271 22.4163V11.2727C45.3271 10.3854 45.4078 8.17277 45.2119 7.33153C44.9065 5.91985 43.9904 5.52227 42.8034 5.52227C41.8123 5.52227 40.7752 6.1849 40.3546 7.2451C39.9339 8.3053 39.9743 10.08 39.9743 11.2727V22.4163C39.9743 22.8369 39.6228 23.1769 39.1849 23.1769H35.0939C34.6791 23.1481 34.3564 22.8196 34.3564 22.4163L34.3506 11.2727C34.3506 8.92759 34.7367 5.47618 31.8269 5.47618C28.8825 5.47618 28.9978 8.84115 28.9978 11.2727V22.4163C28.9978 22.8369 28.6463 23.1769 28.2084 23.1769Z" fill="#221F1F"/>
<path d="M103.926 0.255859C110.005 0.255859 113.295 5.47618 113.295 12.1139C113.295 18.527 109.659 23.6148 103.926 23.6148C97.9568 23.6148 94.707 18.3945 94.707 11.8892C94.707 5.34366 97.9971 0.255859 103.926 0.255859ZM103.961 4.54851C100.941 4.54851 100.751 8.66253 100.751 11.2266C100.751 13.7964 100.711 19.2818 103.926 19.2818C107.101 19.2818 107.251 14.8566 107.251 12.16C107.251 10.3854 107.176 8.26496 106.64 6.58247C106.179 5.11894 105.263 4.54851 103.961 4.54851Z" fill="#221F1F"/>
<path d="M121.177 23.1769H117.098C116.689 23.1481 116.36 22.8196 116.36 22.4163L116.354 1.3852C116.389 0.99915 116.729 0.69953 117.144 0.69953H120.941C121.298 0.716804 121.592 0.958818 121.673 1.28725V4.50241H121.748C122.894 1.6272 124.502 0.255859 127.331 0.255859C129.169 0.255859 130.961 0.918484 132.113 2.73349C133.185 4.41598 133.185 7.2451 133.185 9.27906V22.5143C133.139 22.883 132.799 23.1769 132.396 23.1769H128.287C127.913 23.1481 127.602 22.8715 127.561 22.5143V11.0941C127.561 8.79506 127.827 5.43008 124.997 5.43008C124.001 5.43008 123.084 6.09847 122.629 7.11257C122.053 8.39749 121.978 9.67664 121.978 11.0941V22.4163C121.972 22.8369 121.615 23.1769 121.177 23.1769Z" fill="#221F1F"/>
<path d="M66.5947 13.1338V12.2465C63.6331 12.2465 60.5043 12.8803 60.5043 16.372C60.5043 18.1409 61.4205 19.3394 62.9935 19.3394C64.1459 19.3394 65.1773 18.6307 65.8284 17.4783C66.635 16.0609 66.5947 14.7299 66.5947 13.1338ZM70.726 23.1193C70.4552 23.3613 70.0634 23.3785 69.758 23.2172C68.3982 22.0879 68.1562 21.5635 67.4071 20.4861C65.16 22.7793 63.5697 23.465 60.6541 23.465C57.2085 23.465 54.5234 21.3388 54.5234 17.0807C54.5234 13.7561 56.3269 11.4917 58.891 10.3854C61.1151 9.40583 64.2208 9.23298 66.5947 8.96217V8.43207C66.5947 7.45829 66.6696 6.30591 66.0992 5.46467C65.5979 4.70985 64.6414 4.3987 63.8002 4.3987C62.2387 4.3987 60.8443 5.19961 60.5043 6.85905C60.4352 7.22782 60.1644 7.59082 59.7956 7.60811L55.8199 7.18172C55.4857 7.10682 55.1169 6.83601 55.2091 6.3232C56.1253 1.50621 60.4755 0.0541992 64.3706 0.0541992C66.3642 0.0541992 68.9686 0.584298 70.5416 2.09393C72.5353 3.95503 72.3451 6.43843 72.3451 9.14079V15.525C72.3451 17.4437 73.1403 18.285 73.8893 19.3221C74.1544 19.6909 74.212 20.1346 73.8778 20.4111C73.0423 21.1083 71.5557 22.4048 70.7375 23.1308L70.726 23.1193Z" fill="#221F1F"/>
<path d="M12.8877 13.1338V12.2465C9.92604 12.2465 6.7973 12.8803 6.7973 16.372C6.7973 18.1409 7.71345 19.3394 9.28646 19.3394C10.4388 19.3394 11.4702 18.6307 12.1213 17.4783C12.928 16.0609 12.8877 14.7299 12.8877 13.1338ZM17.019 23.1193C16.7482 23.3613 16.3564 23.3785 16.051 23.2172C14.6912 22.0879 14.4492 21.5635 13.7001 20.4861C11.453 22.7793 9.86266 23.465 6.94711 23.465C3.50147 23.465 0.816406 21.3388 0.816406 17.0807C0.816406 13.7561 2.61989 11.4917 5.18396 10.3854C7.40807 9.40583 10.5138 9.23298 12.8877 8.96217V8.43207C12.8877 7.45829 12.9626 6.30591 12.3922 5.46467C11.8909 4.70985 10.9344 4.3987 10.0931 4.3987C8.53165 4.3987 7.13726 5.19961 6.7973 6.85905C6.72816 7.22782 6.45735 7.59082 6.08858 7.60811L2.11284 7.18172C1.77865 7.10682 1.40989 6.83601 1.50208 6.3232C2.41823 1.50621 6.76849 0.0541992 10.6636 0.0541992C12.6572 0.0541992 15.2616 0.584298 16.8346 2.09393C18.8282 3.95503 18.6381 6.43843 18.6381 9.14079V15.525C18.6381 17.4437 19.4332 18.285 20.1823 19.3221C20.4473 19.6909 20.505 20.1346 20.1708 20.4111C19.3353 21.1083 17.8487 22.4048 17.0305 23.1308L17.019 23.1193Z" fill="#221F1F"/>
</g>
</g>
<defs>
<clipPath id="clip0_3_972">
<rect width="132.52" height="40" fill="white" transform="translate(0.740234)"/>
</clipPath>
<clipPath id="clip1_3_972">
<rect width="132.527" height="40" fill="white" transform="translate(0.736328)"/>
</clipPath>
</defs>
</svg>
