<svg xmlns="http://www.w3.org/2000/svg" width="48" height="48" viewBox="0 0 48 48" fill="none">
<g filter="url(#filter0_d_2_501)">
<rect x="8" y="8" width="32" height="32" rx="16" fill="#DBEAFE"/>
<path d="M20.6667 19.8333V16.5M27.3333 19.8333V16.5M19.8333 23.1667H28.1667M18.1667 31.5H29.8333C30.2754 31.5 30.6993 31.3244 31.0118 31.0118C31.3244 30.6993 31.5 30.2754 31.5 29.8333V19.8333C31.5 19.3913 31.3244 18.9674 31.0118 18.6548C30.6993 18.3423 30.2754 18.1667 29.8333 18.1667H18.1667C17.7246 18.1667 17.3007 18.3423 16.9882 18.6548C16.6756 18.9674 16.5 19.3913 16.5 19.8333V29.8333C16.5 30.2754 16.6756 30.6993 16.9882 31.0118C17.3007 31.3244 17.7246 31.5 18.1667 31.5Z" stroke="#3B82F6" stroke-width="1.66667" stroke-linecap="round" stroke-linejoin="round"/>
</g>
<defs>
<filter id="filter0_d_2_501" x="0" y="0" width="48" height="48" filterUnits="userSpaceOnUse" color-interpolation-filters="sRGB">
<feFlood flood-opacity="0" result="BackgroundImageFix"/>
<feColorMatrix in="SourceAlpha" type="matrix" values="0 0 0 0 0 0 0 0 0 0 0 0 0 0 0 0 0 0 127 0" result="hardAlpha"/>
<feMorphology radius="8" operator="dilate" in="SourceAlpha" result="effect1_dropShadow_2_501"/>
<feOffset/>
<feComposite in2="hardAlpha" operator="out"/>
<feColorMatrix type="matrix" values="0 0 0 0 1 0 0 0 0 1 0 0 0 0 1 0 0 0 1 0"/>
<feBlend mode="normal" in2="BackgroundImageFix" result="effect1_dropShadow_2_501"/>
<feBlend mode="normal" in="SourceGraphic" in2="effect1_dropShadow_2_501" result="shape"/>
</filter>
</defs>
</svg>