<svg width="120" height="40" viewBox="0 0 120 40" fill="none" xmlns="http://www.w3.org/2000/svg">
<path d="M51.1955 20.5131C51.1955 26.0653 46.852 30.1566 41.5216 30.1566C36.1911 30.1566 31.8477 26.0653 31.8477 20.5131C31.8477 14.9218 36.1911 10.8696 41.5216 10.8696C46.852 10.8696 51.1955 14.9218 51.1955 20.5131ZM46.9607 20.5131C46.9607 17.0435 44.4433 14.6696 41.5216 14.6696C38.5998 14.6696 36.0824 17.0435 36.0824 20.5131C36.0824 23.9479 38.5998 26.3566 41.5216 26.3566C44.4433 26.3566 46.9607 23.9435 46.9607 20.5131Z" fill="#EA4335"/>
<path d="M72.0646 20.5131C72.0646 26.0653 67.7211 30.1566 62.3907 30.1566C57.0603 30.1566 52.7168 26.0653 52.7168 20.5131C52.7168 14.9262 57.0603 10.8696 62.3907 10.8696C67.7211 10.8696 72.0646 14.9218 72.0646 20.5131ZM67.8298 20.5131C67.8298 17.0435 65.3124 14.6696 62.3907 14.6696C59.469 14.6696 56.9516 17.0435 56.9516 20.5131C56.9516 23.9479 59.469 26.3566 62.3907 26.3566C65.3124 26.3566 67.8298 23.9435 67.8298 20.5131Z" fill="#FF9900"/>
<path d="M92.0651 11.4522V28.7653C92.0651 35.887 87.8651 38.7957 82.8999 38.7957C78.226 38.7957 75.4129 35.6696 74.352 33.1131L78.039 31.5783C78.6955 33.1479 80.3042 35.0001 82.8955 35.0001C86.0738 35.0001 88.0433 33.0392 88.0433 29.3479V27.9609H87.8955C86.9477 29.1305 85.1216 30.1522 82.8173 30.1522C77.9955 30.1522 73.5781 25.9522 73.5781 20.5479C73.5781 15.1044 77.9955 10.8696 82.8173 10.8696C85.1173 10.8696 86.9433 11.8914 87.8955 13.0262H88.0433V11.4566H92.0651V11.4522ZM88.3433 20.5479C88.3433 17.1522 86.0781 14.6696 83.1955 14.6696C80.2738 14.6696 77.826 17.1522 77.826 20.5479C77.826 23.9088 80.2738 26.3566 83.1955 26.3566C86.0781 26.3566 88.3433 23.9088 88.3433 20.5479Z" fill="#4285F4"/>
<path d="M98.6949 1.3042V29.5651H94.5645V1.3042H98.6949Z" fill="#34A853"/>
<path d="M114.791 23.687L118.078 25.8783C117.017 27.4478 114.461 30.1522 110.043 30.1522C104.565 30.1522 100.474 25.9174 100.474 20.5087C100.474 14.7739 104.6 10.8652 109.569 10.8652C114.574 10.8652 117.021 14.8478 117.821 17L118.261 18.0957L105.369 23.4348C106.356 25.3696 107.891 26.3565 110.043 26.3565C112.2 26.3565 113.695 25.2957 114.791 23.687ZM104.674 20.2174L113.291 16.6391C112.817 15.4348 111.391 14.5957 109.713 14.5957C107.561 14.5957 104.565 16.4957 104.674 20.2174Z" fill="#EA4335"/>
<path d="M16.2123 18.0046V13.9133H29.9993C30.1341 14.6263 30.2037 15.4698 30.2037 16.3829C30.2037 19.4524 29.3645 23.2481 26.6602 25.9524C24.0297 28.6915 20.6689 30.1524 16.2167 30.1524C7.96452 30.1524 1.02539 23.4307 1.02539 15.1785C1.02539 6.92633 7.96452 0.20459 16.2167 0.20459C20.7819 0.20459 24.0341 1.99589 26.4776 4.33068L23.5906 7.21763C21.8384 5.57416 19.4645 4.29589 16.2123 4.29589C10.1863 4.29589 5.47322 9.15242 5.47322 15.1785C5.47322 21.2046 10.1863 26.0611 16.2123 26.0611C20.121 26.0611 22.3471 24.4915 23.7732 23.0655C24.9297 21.9089 25.6906 20.2568 25.9906 18.0002L16.2123 18.0046Z" fill="#4285F4"/>
</svg>
