<svg xmlns="http://www.w3.org/2000/svg" width="48" height="48" viewBox="0 0 48 48" fill="none">
<g filter="url(#filter0_d_2_489)">
<rect x="8" y="8" width="32" height="32" rx="16" fill="#DBEAFE"/>
<path d="M29 21.5V24M29 24V26.5M29 24H31.5M29 24H26.5M24.8333 19.8333C24.8333 20.7174 24.4821 21.5652 23.857 22.1904C23.2319 22.8155 22.3841 23.1667 21.5 23.1667C20.6159 23.1667 19.7681 22.8155 19.143 22.1904C18.5179 21.5652 18.1667 20.7174 18.1667 19.8333C18.1667 18.9493 18.5179 18.1014 19.143 17.4763C19.7681 16.8512 20.6159 16.5 21.5 16.5C22.3841 16.5 23.2319 16.8512 23.857 17.4763C24.4821 18.1014 24.8333 18.9493 24.8333 19.8333ZM16.5 30.6667C16.5 29.3406 17.0268 28.0688 17.9645 27.1311C18.9021 26.1935 20.1739 25.6667 21.5 25.6667C22.8261 25.6667 24.0979 26.1935 25.0355 27.1311C25.9732 28.0688 26.5 29.3406 26.5 30.6667V31.5H16.5V30.6667Z" stroke="#22C55E" stroke-width="1.66667" stroke-linecap="round" stroke-linejoin="round"/>
</g>
<defs>
<filter id="filter0_d_2_489" x="0" y="0" width="48" height="48" filterUnits="userSpaceOnUse" color-interpolation-filters="sRGB">
<feFlood flood-opacity="0" result="BackgroundImageFix"/>
<feColorMatrix in="SourceAlpha" type="matrix" values="0 0 0 0 0 0 0 0 0 0 0 0 0 0 0 0 0 0 127 0" result="hardAlpha"/>
<feMorphology radius="8" operator="dilate" in="SourceAlpha" result="effect1_dropShadow_2_489"/>
<feOffset/>
<feComposite in2="hardAlpha" operator="out"/>
<feColorMatrix type="matrix" values="0 0 0 0 1 0 0 0 0 1 0 0 0 0 1 0 0 0 1 0"/>
<feBlend mode="normal" in2="BackgroundImageFix" result="effect1_dropShadow_2_489"/>
<feBlend mode="normal" in="SourceGraphic" in2="effect1_dropShadow_2_489" result="shape"/>
</filter>
</defs>
</svg>